<svg width="336" height="279" viewBox="0 0 336 279" fill="none" xmlns="http://www.w3.org/2000/svg">
<path d="M5.69076 257.68V268.153H6.95537C7.79415 268.153 8.40064 268.32 8.76196 268.643C9.12328 268.966 9.30394 269.392 9.30394 269.922C9.30394 270.451 9.12328 270.851 8.76196 271.187C8.40064 271.523 7.79415 271.678 6.95537 271.678H2.34857C1.50979 271.678 0.903295 271.51 0.541977 271.187C0.180659 270.864 0 270.438 0 269.909C0 269.379 0.180659 268.979 0.529073 268.643C0.877487 268.32 1.43237 268.153 2.16791 268.153V254.412C1.54851 254.361 1.08395 254.167 0.774253 253.844C0.464552 253.521 0.296797 253.121 0.296797 252.643C0.296797 252.114 0.477456 251.688 0.838774 251.365C1.20009 251.042 1.80659 250.874 2.64536 250.874H6.50372L11.2783 261.463L15.9754 250.874H19.8596C20.6984 250.887 21.3049 251.055 21.6662 251.365C22.0275 251.688 22.2082 252.114 22.2082 252.63C22.2082 253.108 22.0533 253.508 21.7307 253.831C21.4081 254.154 20.9435 254.335 20.3499 254.399V268.14C21.0855 268.14 21.6404 268.307 21.9888 268.63C22.3372 268.966 22.5179 269.379 22.5179 269.896C22.5179 270.412 22.3372 270.826 21.9759 271.161C21.6146 271.497 21.0081 271.652 20.1693 271.652H15.5496C14.7108 271.652 14.1172 271.484 13.7559 271.161C13.3946 270.839 13.2139 270.412 13.2139 269.883C13.2139 269.353 13.3946 268.953 13.7559 268.617C14.1172 268.295 14.7108 268.127 15.5496 268.127H16.84V257.654L12.8139 266.706H9.76849L5.69076 257.654V257.68Z" fill="black"/>
<path d="M41.3451 264.175C41.3451 265.518 40.9709 266.836 40.2225 268.088C39.474 269.354 38.3643 270.361 36.8803 271.097C35.3963 271.846 33.8607 272.221 32.2477 272.221C30.6346 272.221 29.1248 271.846 27.6538 271.11C26.1827 270.374 25.0729 269.367 24.3116 268.101C23.5502 266.836 23.1631 265.505 23.1631 264.124C23.1631 262.742 23.5502 261.334 24.3245 259.978C25.0987 258.622 26.2214 257.564 27.6667 256.789C29.1119 256.014 30.6475 255.626 32.2347 255.626C33.822 255.626 35.3705 256.027 36.8545 256.815C38.3384 257.615 39.4482 258.674 40.1966 260.017C40.9451 261.36 41.3322 262.742 41.3322 264.15L41.3451 264.175ZM37.8352 264.188C37.8352 263.052 37.4351 262.019 36.6222 261.063C35.5124 259.785 34.0542 259.139 32.2606 259.139C30.6733 259.139 29.3442 259.643 28.2861 260.663C27.2279 261.683 26.6988 262.858 26.6988 264.188C26.6988 265.286 27.2408 266.306 28.3119 267.262C29.3829 268.217 30.6991 268.695 32.2735 268.695C33.8478 268.695 35.1769 268.217 36.248 267.262C37.319 266.306 37.861 265.273 37.861 264.162L37.8352 264.188Z" fill="black"/>
<path d="M52.5459 256.104V258.299C54.017 257.24 55.1784 256.53 56.0301 256.169C56.8817 255.807 57.6818 255.639 58.4173 255.639C59.5529 255.639 60.6627 256.065 61.7337 256.905C62.4693 257.473 62.8306 258.054 62.8306 258.648C62.8306 259.152 62.6499 259.578 62.3144 259.926C61.966 260.275 61.5402 260.456 61.0498 260.456C60.6111 260.456 60.1594 260.236 59.682 259.81C59.2045 259.371 58.7787 259.165 58.3915 259.165C57.9012 259.165 57.1656 259.475 56.1849 260.094C55.2042 260.714 53.9912 261.631 52.533 262.871V268.165H57.5399C58.3786 268.165 58.9851 268.333 59.3464 268.656C59.7078 268.979 59.8884 269.405 59.8884 269.935C59.8884 270.464 59.7078 270.864 59.3464 271.2C58.9851 271.536 58.3786 271.691 57.5399 271.691H46.9455C46.1067 271.691 45.5002 271.523 45.1389 271.2C44.7776 270.877 44.5969 270.451 44.5969 269.922C44.5969 269.392 44.7776 268.992 45.1389 268.656C45.5002 268.333 46.1067 268.165 46.9455 268.165H49.036V259.629H47.7714C46.9326 259.629 46.3261 259.462 45.9648 259.139C45.6034 258.816 45.4228 258.39 45.4228 257.86C45.4228 257.331 45.6034 256.931 45.9648 256.595C46.3261 256.259 46.9326 256.104 47.7714 256.104H52.5459V256.104Z" fill="black"/>
<path d="M69.9537 269.728V275.488H72.0571C72.8959 275.488 73.5024 275.656 73.8637 275.978C74.225 276.301 74.4057 276.727 74.4057 277.257C74.4057 277.786 74.225 278.187 73.8637 278.522C73.5024 278.845 72.8959 279.013 72.0571 279.013H65.8373C64.9985 279.013 64.392 278.845 64.0307 278.522C63.6694 278.2 63.4887 277.773 63.4887 277.257C63.4887 276.74 63.6694 276.301 64.0307 275.978C64.392 275.656 64.9985 275.488 65.8244 275.488H66.418V259.617H65.8244C64.9856 259.617 64.3791 259.449 64.0178 259.126C63.6565 258.803 63.4758 258.377 63.4758 257.848C63.4758 257.318 63.6565 256.918 64.0178 256.582C64.3791 256.246 64.9856 256.091 65.8244 256.091H69.9408V257.292C70.7667 256.737 71.6184 256.311 72.4959 256.04C73.3734 255.769 74.2767 255.626 75.2058 255.626C77.6059 255.626 79.6448 256.44 81.3353 258.067C83.0257 259.694 83.8645 261.567 83.8645 263.659C83.8645 265.983 82.8709 267.894 80.8707 269.405C79.2061 270.658 77.3221 271.291 75.2316 271.291C74.3283 271.291 73.4379 271.162 72.5604 270.89C71.6829 270.632 70.8054 270.232 69.9408 269.702L69.9537 269.728ZM80.3674 263.698C80.3674 263.207 80.1739 262.574 79.7868 261.825C79.3996 261.063 78.806 260.43 77.9931 259.927C77.193 259.423 76.2381 259.165 75.1541 259.165C73.4121 259.165 72.0184 259.823 70.9861 261.141C70.2893 262.045 69.9408 262.91 69.9408 263.749C69.9408 264.692 70.4441 265.596 71.4377 266.487C72.4314 267.378 73.6702 267.817 75.1412 267.817C76.6123 267.817 77.864 267.378 78.8577 266.5C79.8513 265.622 80.3416 264.692 80.3416 263.723L80.3674 263.698Z" fill="black"/>
<path d="M91.7361 249.44V256.93C92.4716 256.491 93.2072 256.168 93.9556 255.962C94.7041 255.755 95.4654 255.639 96.2268 255.639C97.4398 255.639 98.5108 255.846 99.4657 256.259C100.408 256.672 101.195 257.318 101.814 258.209C102.434 259.1 102.743 260.21 102.743 261.553V268.152C103.634 268.152 104.214 268.243 104.485 268.411C105.027 268.759 105.311 269.263 105.311 269.922C105.311 270.438 105.131 270.851 104.782 271.187C104.434 271.523 103.827 271.678 102.989 271.678H98.9754C98.1366 271.678 97.543 271.51 97.1817 271.187C96.8204 270.864 96.6397 270.438 96.6397 269.909C96.6397 269.263 96.9107 268.772 97.4656 268.424C97.7495 268.243 98.3301 268.152 99.2076 268.165V261.812C99.2076 260.908 99.0012 260.275 98.5882 259.913C98.0463 259.423 97.2591 259.177 96.2139 259.177C95.4396 259.177 94.7557 259.332 94.1492 259.629C93.5427 259.926 92.7426 260.585 91.7232 261.592V268.178C92.6265 268.178 93.2072 268.269 93.4653 268.436C94.0201 268.785 94.304 269.289 94.304 269.947C94.304 270.464 94.1234 270.877 93.7621 271.213C93.4007 271.549 92.7942 271.704 91.9555 271.704H87.9681C87.1293 271.704 86.5228 271.536 86.1615 271.213C85.8002 270.89 85.6195 270.464 85.6195 269.934C85.6195 269.289 85.9034 268.798 86.4583 268.449C86.7293 268.269 87.3099 268.178 88.2003 268.191V252.992H87.6067C86.768 252.992 86.1615 252.824 85.8002 252.501C85.4388 252.178 85.2582 251.752 85.2582 251.223C85.2582 250.693 85.4388 250.293 85.8002 249.957C86.1615 249.621 86.768 249.466 87.6067 249.466H91.7232L91.7361 249.44Z" fill="black"/>
<path d="M118.164 249.441V268.153H122.371C123.209 268.153 123.816 268.32 124.177 268.643C124.539 268.966 124.719 269.392 124.719 269.922C124.719 270.451 124.539 270.852 124.177 271.187C123.816 271.51 123.209 271.678 122.371 271.678H110.434C109.583 271.678 108.989 271.51 108.628 271.187C108.266 270.864 108.086 270.438 108.086 269.909C108.086 269.379 108.266 268.979 108.628 268.643C108.989 268.32 109.595 268.153 110.434 268.153H114.641V252.953H111.815C110.976 252.953 110.383 252.785 110.021 252.462C109.66 252.14 109.479 251.713 109.479 251.184C109.479 250.655 109.66 250.254 110.021 249.918C110.383 249.596 110.989 249.428 111.828 249.428H118.164V249.441Z" fill="black"/>
<path d="M139.198 256.104V268.152H143.405C144.243 268.152 144.85 268.32 145.211 268.643C145.573 268.966 145.753 269.392 145.753 269.922C145.753 270.451 145.573 270.851 145.211 271.187C144.85 271.51 144.243 271.678 143.405 271.678H131.468C130.629 271.678 130.023 271.51 129.662 271.187C129.3 270.864 129.12 270.438 129.12 269.909C129.12 269.379 129.3 268.979 129.662 268.643C130.023 268.32 130.629 268.152 131.468 268.152H135.675V259.616H132.849C132.01 259.616 131.417 259.449 131.055 259.126C130.694 258.803 130.513 258.377 130.513 257.847C130.513 257.318 130.694 256.917 131.055 256.582C131.417 256.259 132.023 256.091 132.862 256.091H139.198V256.104ZM138.72 249.44V253.16H134.539V249.44H138.72Z" fill="black"/>
<path d="M154.954 256.104V257.292C155.599 256.75 156.296 256.336 157.07 256.052C157.844 255.768 158.683 255.639 159.574 255.639C161.651 255.639 163.29 256.285 164.503 257.576C165.458 258.609 165.935 259.952 165.935 261.618V268.152C166.671 268.152 167.226 268.32 167.574 268.643C167.923 268.966 168.103 269.392 168.103 269.922C168.103 270.451 167.923 270.851 167.561 271.187C167.2 271.523 166.593 271.678 165.755 271.678H162.58C161.741 271.678 161.135 271.51 160.774 271.187C160.412 270.864 160.232 270.438 160.232 269.909C160.232 269.379 160.412 268.979 160.761 268.643C161.109 268.32 161.664 268.152 162.4 268.152V261.515C162.4 260.753 162.193 260.185 161.78 259.836C161.238 259.384 160.438 259.152 159.367 259.152C158.554 259.152 157.844 259.307 157.238 259.617C156.631 259.926 155.857 260.598 154.915 261.618V268.152C155.818 268.152 156.399 268.243 156.657 268.411C157.212 268.759 157.496 269.263 157.496 269.922C157.496 270.438 157.315 270.851 156.954 271.187C156.593 271.51 155.986 271.678 155.147 271.678H151.16C150.321 271.678 149.715 271.51 149.353 271.187C148.992 270.864 148.811 270.438 148.811 269.909C148.811 269.263 149.082 268.772 149.637 268.424C149.908 268.256 150.502 268.165 151.405 268.165V259.629C150.657 259.629 150.115 259.462 149.766 259.139C149.418 258.803 149.237 258.39 149.237 257.873C149.237 257.357 149.418 256.943 149.779 256.608C150.141 256.285 150.747 256.117 151.586 256.117H154.928L154.954 256.104Z" fill="black"/>
<path d="M188.363 265.673H173.962C174.323 266.59 174.981 267.326 175.91 267.882C176.839 268.437 178.104 268.721 179.691 268.721C180.994 268.721 182.724 268.437 184.879 267.882C185.769 267.649 186.388 267.533 186.724 267.533C187.189 267.533 187.589 267.701 187.911 268.024C188.234 268.359 188.389 268.773 188.389 269.276C188.389 269.728 188.221 270.129 187.872 270.438C187.421 270.865 186.298 271.265 184.53 271.652C182.762 272.04 181.059 272.221 179.433 272.221C176.62 272.221 174.375 271.433 172.697 269.844C171.02 268.256 170.168 266.306 170.168 263.982C170.168 261.515 171.084 259.501 172.904 257.951C174.723 256.401 176.826 255.626 179.201 255.626C180.633 255.626 181.936 255.872 183.137 256.375C184.337 256.879 185.214 257.421 185.795 258.003C186.621 258.842 187.292 259.888 187.834 261.141C188.195 262.006 188.376 263.013 188.376 264.15V265.647L188.363 265.673ZM184.479 262.161C183.937 261.154 183.24 260.405 182.375 259.901C181.511 259.41 180.478 259.152 179.278 259.152C178.078 259.152 177.059 259.397 176.194 259.901C175.33 260.392 174.62 261.154 174.065 262.161H184.479Z" fill="black"/>
<path d="M216.507 270.774C216.197 271.136 215.952 271.368 215.758 271.471C215.565 271.575 215.333 271.626 215.062 271.626C214.52 271.626 214.094 271.446 213.771 271.084C213.449 270.722 213.281 270.128 213.281 269.289V266.926C213.281 266.086 213.449 265.48 213.771 265.118C214.094 264.756 214.533 264.576 215.062 264.576C215.475 264.576 215.823 264.679 216.094 264.898C216.365 265.118 216.584 265.48 216.739 265.983C216.881 266.487 217.036 266.835 217.204 267.016C217.539 267.365 218.12 267.726 218.972 268.101C219.823 268.463 220.74 268.643 221.746 268.643C223.307 268.643 224.598 268.282 225.604 267.546C226.25 267.107 226.559 266.551 226.559 265.906C226.559 265.467 226.404 265.066 226.095 264.679C225.785 264.291 225.282 263.982 224.585 263.723C224.133 263.555 223.101 263.323 221.514 263.026C219.591 262.677 218.146 262.238 217.165 261.735C216.184 261.231 215.41 260.521 214.842 259.604C214.275 258.687 213.991 257.705 213.991 256.634C213.991 254.955 214.687 253.483 216.094 252.217C217.501 250.952 219.32 250.319 221.578 250.319C222.482 250.319 223.32 250.422 224.082 250.616C224.856 250.822 225.553 251.119 226.172 251.533C226.624 251.094 227.088 250.861 227.54 250.861C228.056 250.861 228.469 251.042 228.792 251.404C229.114 251.765 229.282 252.359 229.282 253.199V255.833C229.282 256.685 229.114 257.279 228.792 257.641C228.469 258.002 228.043 258.183 227.54 258.183C227.101 258.183 226.727 258.054 226.404 257.783C226.146 257.589 225.966 257.202 225.837 256.621C225.708 256.04 225.553 255.626 225.359 255.368C225.024 254.929 224.533 254.567 223.862 254.27C223.204 253.973 222.43 253.818 221.565 253.818C220.301 253.818 219.294 254.115 218.559 254.697C217.823 255.291 217.449 255.898 217.449 256.543C217.449 256.982 217.604 257.396 217.901 257.809C218.197 258.209 218.649 258.532 219.23 258.764C219.617 258.919 220.714 259.178 222.507 259.539C224.301 259.888 225.682 260.288 226.65 260.701C227.617 261.128 228.418 261.786 229.063 262.69C229.708 263.594 230.018 264.666 230.018 265.919C230.018 267.649 229.411 269.044 228.185 270.077C226.559 271.446 224.495 272.13 221.991 272.13C221.023 272.13 220.081 272.014 219.152 271.781C218.236 271.549 217.346 271.2 216.468 270.722L216.507 270.774Z" fill="black"/>
<path d="M241.825 259.617V266.655C241.825 267.404 241.98 267.907 242.29 268.14C242.767 268.514 243.632 268.708 244.858 268.708C246.651 268.708 248.303 268.321 249.826 267.559C250.406 267.262 250.871 267.12 251.193 267.12C251.645 267.12 252.045 267.287 252.381 267.636C252.716 267.985 252.884 268.398 252.884 268.889C252.884 269.341 252.703 269.741 252.342 270.077C251.787 270.619 250.677 271.11 249.026 271.562C247.374 272.014 245.98 272.233 244.858 272.233C242.677 272.233 241.038 271.769 239.954 270.826C238.87 269.883 238.315 268.734 238.315 267.352V259.63H237.05C236.199 259.63 235.605 259.462 235.244 259.139C234.883 258.816 234.702 258.39 234.702 257.86C234.702 257.331 234.883 256.931 235.244 256.595C235.605 256.259 236.212 256.104 237.05 256.104H238.315V252.927C238.315 252.075 238.483 251.481 238.805 251.12C239.128 250.758 239.554 250.577 240.083 250.577C240.612 250.577 241.012 250.758 241.348 251.12C241.683 251.481 241.838 252.088 241.838 252.927V256.104H248.329C249.168 256.104 249.774 256.272 250.135 256.595C250.497 256.918 250.677 257.344 250.677 257.873C250.677 258.403 250.497 258.803 250.135 259.126C249.774 259.449 249.168 259.617 248.329 259.617H241.838H241.825Z" fill="black"/>
<path d="M271.195 256.104V268.153C271.943 268.153 272.485 268.321 272.834 268.643C273.182 268.979 273.363 269.392 273.363 269.909C273.363 270.425 273.182 270.839 272.821 271.174C272.46 271.51 271.853 271.665 271.014 271.665H267.672V270.865C266.666 271.317 265.711 271.665 264.794 271.898C263.878 272.13 263.014 272.233 262.188 272.233C261.039 272.233 260.033 271.988 259.194 271.51C258.342 271.02 257.684 270.348 257.194 269.496C256.845 268.876 256.665 268.101 256.665 267.184V259.63H256.071C255.22 259.63 254.626 259.462 254.265 259.139C253.903 258.816 253.723 258.39 253.723 257.86C253.723 257.331 253.903 256.931 254.265 256.595C254.626 256.259 255.232 256.104 256.071 256.104H260.175V266.551C260.175 267.3 260.355 267.843 260.717 268.191C261.078 268.54 261.633 268.721 262.368 268.721C263.104 268.721 263.84 268.579 264.653 268.295C265.465 268.011 266.472 267.507 267.672 266.784V259.617H266.408C265.556 259.617 264.962 259.449 264.601 259.126C264.24 258.803 264.059 258.377 264.059 257.848C264.059 257.318 264.24 256.918 264.601 256.582C264.962 256.246 265.569 256.091 266.408 256.091H271.182L271.195 256.104Z" fill="black"/>
<path d="M292.835 249.44V268.152H293.429C294.268 268.152 294.861 268.32 295.223 268.643C295.584 268.966 295.765 269.392 295.765 269.922C295.765 270.451 295.584 270.851 295.223 271.187C294.861 271.51 294.255 271.678 293.416 271.678H289.313V270.825C288.513 271.29 287.674 271.652 286.809 271.884C285.945 272.117 285.028 272.246 284.099 272.246C281.467 272.246 279.338 271.484 277.725 269.96C276.112 268.436 275.312 266.538 275.312 264.265C275.312 261.993 276.163 259.862 277.841 258.183C279.531 256.504 281.596 255.665 284.022 255.665C284.938 255.665 285.828 255.807 286.706 256.091C287.583 256.375 288.448 256.788 289.313 257.357V252.992H288.719C287.867 252.992 287.274 252.824 286.912 252.501C286.551 252.178 286.37 251.752 286.37 251.235C286.37 250.719 286.551 250.28 286.912 249.957C287.274 249.634 287.88 249.466 288.719 249.466H292.835V249.44ZM289.326 264.343C289.326 262.896 288.822 261.67 287.803 260.662C286.783 259.655 285.545 259.152 284.073 259.152C282.602 259.152 281.376 259.655 280.357 260.662C279.338 261.67 278.834 262.884 278.834 264.291C278.834 265.583 279.286 266.641 280.202 267.468C281.118 268.294 282.409 268.708 284.073 268.708C285.738 268.708 287.016 268.294 287.945 267.468C288.874 266.641 289.338 265.595 289.338 264.343H289.326Z" fill="black"/>
<path d="M307.572 256.104V268.152H311.779C312.618 268.152 313.224 268.32 313.585 268.643C313.947 268.966 314.127 269.392 314.127 269.922C314.127 270.451 313.947 270.851 313.585 271.187C313.224 271.51 312.618 271.678 311.779 271.678H299.842C299.004 271.678 298.397 271.51 298.036 271.187C297.674 270.864 297.494 270.438 297.494 269.909C297.494 269.379 297.674 268.979 298.036 268.643C298.397 268.32 299.004 268.152 299.842 268.152H304.049V259.616H301.223C300.384 259.616 299.791 259.449 299.429 259.126C299.068 258.803 298.887 258.377 298.887 257.847C298.887 257.318 299.068 256.917 299.429 256.582C299.791 256.259 300.397 256.091 301.236 256.091H307.572V256.104ZM307.095 249.44V253.16H302.914V249.44H307.095Z" fill="black"/>
<path d="M336 264.175C336 265.518 335.626 266.836 334.877 268.088C334.129 269.354 333.019 270.361 331.535 271.097C330.051 271.846 328.515 272.221 326.902 272.221C325.289 272.221 323.78 271.846 322.309 271.11C320.837 270.374 319.728 269.367 318.966 268.101C318.205 266.836 317.818 265.505 317.818 264.124C317.818 262.742 318.205 261.334 318.979 259.978C319.754 258.622 320.876 257.564 322.321 256.789C323.78 256.014 325.302 255.626 326.89 255.626C328.477 255.626 330.025 256.027 331.509 256.815C332.993 257.615 334.103 258.674 334.851 260.017C335.6 261.36 335.987 262.742 335.987 264.15L336 264.175ZM332.49 264.188C332.49 263.052 332.09 262.019 331.277 261.063C330.167 259.785 328.709 259.139 326.915 259.139C325.328 259.139 323.999 259.643 322.941 260.663C321.883 261.683 321.354 262.858 321.354 264.188C321.354 265.286 321.896 266.306 322.967 267.262C324.038 268.217 325.354 268.695 326.928 268.695C328.503 268.695 329.832 268.217 330.903 267.262C331.974 266.306 332.516 265.273 332.516 264.162L332.49 264.188Z" fill="black"/>
<path d="M162.206 120.524L160.58 122.538L162.077 120.42C159.819 118.574 158.567 115.733 158.735 112.827L160.309 85.5016C160.335 85.0109 160.219 84.5073 159.974 84.0682C159.948 84.0295 157.509 79.6388 158.864 75.9068C159.612 73.8535 161.458 72.2522 164.374 71.1545C165.703 70.6509 166.387 69.1658 165.884 67.8228C165.406 66.5573 164.038 65.8987 162.761 66.2602C162.619 66.1053 162.451 65.9632 162.271 65.8341C161.961 65.6404 130.978 45.3659 130.294 2.53124C130.268 1.11073 129.107 -0.038584 127.674 -0.0127567C126.255 0.0130707 125.106 1.18822 125.132 2.60872C125.777 42.809 150.799 63.8841 157.754 68.9721C155.986 70.3926 154.709 72.123 153.986 74.1634C153.612 75.2223 153.418 76.2812 153.341 77.3143C140.72 56.3942 109.544 11.8678 74.0702 13.9857C64.0178 14.5797 52.0298 20.3005 52.0298 44.1262C52.0298 78.1666 75.6187 107.093 108.163 117.14L97.0655 122.577C85.1936 127.884 74.8832 135.813 67.2697 145.511C56.3011 159.471 46.6229 182.018 62.7919 210.183C62.8177 210.235 62.8435 210.274 62.8822 210.325C63.9017 211.978 75.0896 229.115 102.137 233.17C102.343 233.26 102.563 233.324 102.808 233.363C102.885 233.363 104.382 233.544 106.899 233.544C116.628 233.544 141.559 230.961 157.831 206.503C158.141 207.071 158.515 207.652 158.993 208.272C159.509 208.918 160.257 209.253 161.019 209.253C161.587 209.253 162.141 209.073 162.619 208.698C163.742 207.807 163.922 206.193 163.045 205.069C162.025 203.791 161.845 203.287 161.754 199.581C161.793 199.323 161.806 199.077 161.78 198.819L167.432 132.83C167.832 128.104 165.884 123.507 162.219 120.536L162.206 120.524ZM122.9 115.1C118.538 112.917 78.3286 92.1651 75.1154 67.1255C73.9799 58.2279 75.2058 50.9704 78.7673 45.4692C100.666 37.424 144.489 76.0101 148.721 79.8067C152.463 85.9278 154.593 89.9956 154.67 90.1764C154.722 90.2797 154.786 90.3572 154.851 90.4476L153.586 112.543C153.521 113.641 153.586 114.738 153.78 115.81H133.378C129.829 115.81 126.332 115.565 122.913 115.113L122.9 115.1ZM138.914 64.9689C124.642 53.9664 102.008 39.0124 84.7291 39.2707C93.8395 32.7622 106.473 32.7751 109.673 32.8913C121.119 41.9825 131.21 54.173 138.914 64.9689V64.9689ZM57.1786 44.152C57.1786 28.0357 62.8048 19.8614 74.367 19.177C84.2 18.5959 93.8136 22.1471 102.782 27.9324C95.5299 28.591 84.9355 30.9413 77.6059 38.6121C76.6252 39.6322 75.7477 40.717 74.9606 41.8663C74.9348 41.905 74.909 41.9438 74.8832 41.9825C70.3022 48.6072 68.6504 57.2594 70.0054 67.7841C72.3152 85.8761 90.7037 101.256 104.769 110.541C76.8962 99.8875 57.1786 74.1505 57.1786 44.152V44.152ZM65.5534 204.462C55.6172 184.989 57.5528 166.264 71.3216 148.727C78.4189 139.687 88.0584 132.288 99.2463 127.277L115.854 119.155C116.37 119.258 116.873 119.374 117.39 119.465C91.0005 151.994 79.4254 173.883 82.9741 184.511C83.0128 184.64 83.0644 184.756 83.116 184.885L65.5534 204.462V204.462ZM103.943 228.301C103.776 228.236 103.595 228.185 103.401 228.159C82.3547 225.163 71.5668 213.347 68.3278 209.111L86.3937 188.966C87.1293 189.392 87.7099 189.56 87.8648 189.599C88.6649 189.78 89.5294 189.87 90.4585 189.87C109.983 189.87 155.405 151.568 161.045 146.751L156.618 198.509C139.443 230.367 108.357 228.714 103.943 228.301ZM162.271 132.391L161.367 143.006C160.438 141.96 158.838 141.844 157.767 142.761C143.03 155.365 101.943 187.468 89.0391 184.575C89.0391 184.575 88.3035 184.188 87.8648 182.897C86.484 178.751 87.2325 164.391 123.326 120.369C126.616 120.756 129.958 120.975 133.365 120.975H155.78C156.593 122.267 157.599 123.455 158.812 124.436C158.812 124.436 158.954 124.553 158.967 124.565C161.303 126.451 162.542 129.382 162.283 132.404L162.271 132.391Z" fill="black"/>
<path d="M238.792 122.628L227.617 117.166C260.162 107.119 283.751 78.1924 283.751 44.1519C283.751 20.3262 271.763 14.6183 261.71 14.0114C225.759 11.8548 194.273 57.5305 181.962 78.1149C181.936 76.8364 181.743 75.5192 181.278 74.202C180.582 72.2521 179.394 70.5991 177.743 69.2044C184.285 64.491 209.99 43.39 210.635 2.64736C210.661 1.22685 209.526 0.0517063 208.093 0.0258789H208.055C206.648 0.0258789 205.5 1.16228 205.474 2.56987C204.79 45.4045 173.807 65.6661 173.497 65.8727C173.252 66.0277 173.058 66.2214 172.891 66.428C172.826 66.4022 172.774 66.3764 172.71 66.3505C171.381 65.8469 169.884 66.5184 169.381 67.8614C168.877 69.1915 169.548 70.6895 170.89 71.1932C173.807 72.2908 175.665 73.8921 176.401 75.9454C177.756 79.6774 175.317 84.0681 175.291 84.0939C175.033 84.533 174.917 85.0237 174.955 85.5273L176.53 112.853C176.697 115.758 175.446 118.599 173.2 120.446L173.058 120.562C169.394 123.532 167.445 128.13 167.845 132.856L173.523 199.245C173.433 203.3 173.265 203.778 172.22 205.095C171.329 206.219 171.523 207.833 172.645 208.724C173.123 209.098 173.691 209.279 174.246 209.279C175.007 209.279 175.755 208.943 176.272 208.298C176.878 207.536 177.317 206.826 177.652 206.102C193.924 230.974 219.088 233.57 228.869 233.57C231.385 233.57 232.882 233.402 232.96 233.389C233.192 233.363 233.411 233.286 233.631 233.195C260.678 229.14 271.879 212.004 272.885 210.351C272.911 210.299 272.937 210.261 272.976 210.209C289.145 182.044 279.467 159.497 268.498 145.537C260.884 135.839 250.574 127.91 238.78 122.641L238.792 122.628ZM180.452 90.964C180.711 90.7445 180.943 90.4733 181.098 90.1634C181.188 89.9955 183.317 85.9147 187.047 79.8066C191.228 76.0487 235.102 37.411 257 45.4562C260.549 50.9703 261.788 58.2278 260.652 67.1124C257.452 92.1521 217.23 112.917 212.881 115.087C209.448 115.526 205.964 115.784 202.403 115.784H181.498C181.691 114.712 181.756 113.628 181.691 112.517L180.452 90.964V90.964ZM261.401 19.1639C272.963 19.8613 278.589 28.0227 278.589 44.139C278.589 74.1375 258.871 99.8615 230.998 110.528C245.064 101.243 263.452 85.8631 265.762 67.771C267.104 57.2464 265.465 48.6071 260.884 41.9824C260.859 41.9437 260.82 41.892 260.794 41.8533C259.994 40.7169 259.117 39.6321 258.149 38.6119C250.819 30.9412 240.238 28.5909 232.973 27.9323C241.941 22.147 251.555 18.5957 261.388 19.1769L261.401 19.1639ZM226.095 32.8912C229.295 32.775 241.928 32.7621 251.039 39.2705C233.747 39.0123 211.113 53.9792 196.841 64.9817C204.545 54.1858 214.636 41.9953 226.095 32.9041V32.8912ZM172.994 132.378C172.736 129.356 173.975 126.425 176.336 124.514L176.452 124.41C177.678 123.416 178.685 122.215 179.51 120.911C179.64 120.924 179.769 120.95 179.898 120.95H202.403C205.809 120.95 209.151 120.73 212.442 120.343C247.954 163.668 249.155 178.286 247.993 182.574C247.593 184.046 246.858 184.472 246.651 184.562C233.566 187.235 192.699 155.3 178.001 142.735C176.917 141.805 175.291 141.934 174.362 143.019C174.181 143.226 174.052 143.458 173.962 143.703L172.994 132.378V132.378ZM232.366 228.146C232.173 228.172 231.992 228.223 231.824 228.288C227.372 228.701 195.938 230.38 178.839 197.928C178.762 197.786 178.672 197.644 178.568 197.515L174.168 146.092C174.297 146.299 174.452 146.493 174.659 146.674C180.027 151.271 225.72 189.844 245.348 189.844C246.277 189.844 247.141 189.754 247.954 189.573C248.096 189.534 248.664 189.379 249.387 188.953L267.453 209.098C264.201 213.334 253.426 225.15 232.379 228.146H232.366ZM270.214 204.462L252.652 184.885C252.703 184.756 252.755 184.64 252.794 184.511C256.342 173.87 244.754 151.994 218.378 119.464C218.894 119.361 219.397 119.258 219.914 119.155L236.599 127.316C247.709 132.288 257.336 139.687 264.446 148.727C278.228 166.264 280.163 185.001 270.214 204.462V204.462Z" fill="black"/>
</svg>
