<svg width="232" height="234" viewBox="0 0 232 234" fill="none" xmlns="http://www.w3.org/2000/svg">
<path d="M110.206 120.524L108.58 122.538L110.077 120.42C107.819 118.574 106.567 115.733 106.735 112.827L108.309 85.5016C108.335 85.0109 108.219 84.5073 107.974 84.0682C107.948 84.0295 105.509 79.6388 106.864 75.9068C107.612 73.8535 109.458 72.2522 112.374 71.1545C113.703 70.6509 114.387 69.1658 113.884 67.8228C113.406 66.5573 112.038 65.8987 110.761 66.2602C110.619 66.1053 110.451 65.9632 110.271 65.8341C109.961 65.6404 78.9778 45.3659 78.2939 2.53124C78.2681 1.11073 77.1067 -0.038584 75.6743 -0.0127567C74.2548 0.0130707 73.1064 1.18822 73.1322 2.60872C73.7774 42.809 98.7987 63.8841 105.754 68.9721C103.986 70.3926 102.709 72.123 101.986 74.1634C101.612 75.2223 101.418 76.2812 101.341 77.3143C88.7205 56.3942 57.5439 11.8678 22.0702 13.9857C12.0178 14.5797 0.0297852 20.3005 0.0297852 44.1262C0.0297852 78.1666 23.6187 107.093 56.1631 117.14L45.0655 122.577C33.1936 127.884 22.8832 135.813 15.2697 145.511C4.30108 159.471 -5.37708 182.018 10.7919 210.183C10.8177 210.235 10.8435 210.274 10.8822 210.325C11.9017 211.978 23.0896 229.115 50.1369 233.17C50.3433 233.26 50.5627 233.324 50.8079 233.363C50.8853 233.363 52.3822 233.544 54.8985 233.544C64.6283 233.544 89.5592 230.961 105.831 206.503C106.141 207.071 106.515 207.652 106.993 208.272C107.509 208.918 108.257 209.253 109.019 209.253C109.587 209.253 110.141 209.073 110.619 208.698C111.742 207.807 111.922 206.193 111.045 205.069C110.025 203.791 109.845 203.287 109.754 199.581C109.793 199.323 109.806 199.077 109.78 198.819L115.432 132.83C115.832 128.104 113.884 123.507 110.219 120.536L110.206 120.524ZM70.8997 115.1C66.5381 112.917 26.3286 92.1651 23.1154 67.1255C21.9799 58.2279 23.2058 50.9704 26.7673 45.4692C48.6658 37.424 92.4885 76.0101 96.7211 79.8067C100.463 85.9278 102.593 89.9956 102.67 90.1764C102.722 90.2797 102.786 90.3572 102.851 90.4476L101.586 112.543C101.521 113.641 101.586 114.738 101.78 115.81H81.378C77.8293 115.81 74.3323 115.565 70.9127 115.113L70.8997 115.1ZM86.9139 64.9689C72.6418 53.9664 50.0078 39.0124 32.7291 39.2707C41.8395 32.7622 54.4727 32.7751 57.6729 32.8913C69.119 41.9825 79.2101 54.173 86.9139 64.9689V64.9689ZM5.17857 44.152C5.17857 28.0357 10.8048 19.8614 22.367 19.177C32.2 18.5959 41.8136 22.1471 50.7821 27.9324C43.5299 28.591 32.9355 30.9413 25.6059 38.6121C24.6252 39.6322 23.7477 40.717 22.9606 41.8663C22.9348 41.905 22.909 41.9438 22.8832 41.9825C18.3022 48.6072 16.6504 57.2594 18.0054 67.7841C20.3152 85.8761 38.7037 101.256 52.7693 110.541C24.8962 99.8875 5.17857 74.1505 5.17857 44.152V44.152ZM13.5534 204.462C3.61716 184.989 5.55279 166.264 19.3216 148.727C26.4189 139.687 36.0584 132.288 47.2463 127.277L63.854 119.155C64.3702 119.258 64.8735 119.374 65.3896 119.465C39.0005 151.994 27.4254 173.883 30.9741 184.511C31.0128 184.64 31.0644 184.756 31.116 184.885L13.5534 204.462V204.462ZM51.9435 228.301C51.7757 228.236 51.595 228.185 51.4015 228.159C30.3547 225.163 19.5668 213.347 16.3278 209.111L34.3937 188.966C35.1293 189.392 35.7099 189.56 35.8648 189.599C36.6649 189.78 37.5294 189.87 38.4585 189.87C57.9826 189.87 103.405 151.568 109.045 146.751L104.618 198.509C87.443 230.367 56.3567 228.714 51.9435 228.301ZM110.271 132.391L109.367 143.006C108.438 141.96 106.838 141.844 105.767 142.761C91.0303 155.365 49.9433 187.468 37.0391 184.575C37.0391 184.575 36.3035 184.188 35.8648 182.897C34.484 178.751 35.2325 164.391 71.3256 120.369C74.6162 120.756 77.9584 120.975 81.3651 120.975H103.78C104.593 122.267 105.599 123.455 106.812 124.436C106.812 124.436 106.954 124.553 106.967 124.565C109.303 126.451 110.542 129.382 110.283 132.404L110.271 132.391Z" fill="black"/>
<path d="M186.792 122.628L175.617 117.166C208.162 107.119 231.751 78.1924 231.751 44.1519C231.751 20.3262 219.763 14.6183 209.71 14.0114C173.759 11.8548 142.273 57.5305 129.962 78.1149C129.936 76.8364 129.743 75.5192 129.278 74.202C128.582 72.2521 127.394 70.5991 125.743 69.2044C132.285 64.491 157.99 43.39 158.635 2.64736C158.661 1.22685 157.526 0.0517063 156.093 0.0258789H156.055C154.648 0.0258789 153.5 1.16228 153.474 2.56987C152.79 45.4045 121.807 65.6661 121.497 65.8727C121.252 66.0277 121.058 66.2214 120.891 66.428C120.826 66.4022 120.774 66.3764 120.71 66.3505C119.381 65.8469 117.884 66.5184 117.381 67.8614C116.877 69.1915 117.548 70.6895 118.89 71.1932C121.807 72.2908 123.665 73.8921 124.401 75.9454C125.756 79.6774 123.317 84.0681 123.291 84.0939C123.033 84.533 122.917 85.0237 122.955 85.5273L124.53 112.853C124.697 115.758 123.446 118.599 121.2 120.446L121.058 120.562C117.394 123.532 115.445 128.13 115.845 132.856L121.523 199.245C121.433 203.3 121.265 203.778 120.22 205.095C119.329 206.219 119.523 207.833 120.645 208.724C121.123 209.098 121.691 209.279 122.246 209.279C123.007 209.279 123.755 208.943 124.272 208.298C124.878 207.536 125.317 206.826 125.652 206.102C141.924 230.974 167.088 233.57 176.869 233.57C179.385 233.57 180.882 233.402 180.96 233.389C181.192 233.363 181.411 233.286 181.631 233.195C208.678 229.14 219.879 212.004 220.885 210.351C220.911 210.299 220.937 210.261 220.976 210.209C237.145 182.044 227.467 159.497 216.498 145.537C208.884 135.839 198.574 127.91 186.78 122.641L186.792 122.628ZM128.452 90.964C128.711 90.7445 128.943 90.4733 129.098 90.1634C129.188 89.9955 131.317 85.9147 135.047 79.8066C139.228 76.0487 183.102 37.411 205 45.4562C208.549 50.9703 209.788 58.2278 208.652 67.1124C205.452 92.1521 165.23 112.917 160.881 115.087C157.448 115.526 153.964 115.784 150.403 115.784H129.498C129.691 114.712 129.756 113.628 129.691 112.517L128.452 90.964V90.964ZM209.401 19.1639C220.963 19.8613 226.589 28.0227 226.589 44.139C226.589 74.1375 206.871 99.8615 178.998 110.528C193.064 101.243 211.452 85.8631 213.762 67.771C215.104 57.2464 213.465 48.6071 208.884 41.9824C208.859 41.9437 208.82 41.892 208.794 41.8533C207.994 40.7169 207.117 39.6321 206.149 38.6119C198.819 30.9412 188.238 28.5909 180.973 27.9323C189.941 22.147 199.555 18.5957 209.388 19.1769L209.401 19.1639ZM174.095 32.8912C177.295 32.775 189.928 32.7621 199.039 39.2705C181.747 39.0123 159.113 53.9792 144.841 64.9817C152.545 54.1858 162.636 41.9953 174.095 32.9041V32.8912ZM120.994 132.378C120.736 129.356 121.975 126.425 124.336 124.514L124.452 124.41C125.678 123.416 126.685 122.215 127.51 120.911C127.64 120.924 127.769 120.95 127.898 120.95H150.403C153.809 120.95 157.151 120.73 160.442 120.343C195.954 163.668 197.155 178.286 195.993 182.574C195.593 184.046 194.858 184.472 194.651 184.562C181.566 187.235 140.699 155.3 126.001 142.735C124.917 141.805 123.291 141.934 122.362 143.019C122.181 143.226 122.052 143.458 121.962 143.703L120.994 132.378V132.378ZM180.366 228.146C180.173 228.172 179.992 228.223 179.824 228.288C175.372 228.701 143.938 230.38 126.839 197.928C126.762 197.786 126.672 197.644 126.568 197.515L122.168 146.092C122.297 146.299 122.452 146.493 122.659 146.674C128.027 151.271 173.72 189.844 193.348 189.844C194.277 189.844 195.141 189.754 195.954 189.573C196.096 189.534 196.664 189.379 197.387 188.953L215.453 209.098C212.201 213.334 201.426 225.15 180.379 228.146H180.366ZM218.214 204.462L200.652 184.885C200.703 184.756 200.755 184.64 200.794 184.511C204.342 173.87 192.754 151.994 166.378 119.464C166.894 119.361 167.397 119.258 167.914 119.155L184.599 127.316C195.709 132.288 205.336 139.687 212.446 148.727C226.228 166.264 228.163 185.001 218.214 204.462V204.462Z" fill="black"/>
</svg>
